HIERARCHY
ROOT Hips
{
	OFFSET 0.000000 0.000000 0.000000
	CHANNELS 6 Xposition Yposition Zposition Xrotation Yrotation Zrotation
	JOINT LeftUpLeg_virtual
	{
		OFFSET 0.000000 0.000000 0.000000
		CHANNELS 3 Xrotation Yrotation Zrotation
		JOINT LeftUpLeg
		{
			OFFSET 13.026900 -6.336304 -1.092800
			CHANNELS 3 Xrotation Yrotation Zrotation
			JOINT LeftLeg
			{
				OFFSET 0.524474 -46.096886 9.782700
				CHANNELS 3 Xrotation Yrotation Zrotation
				JOINT LeftFoot
				{
					OFFSET -0.524474 -53.427422 -12.948200
					CHANNELS 3 Xrotation Yrotation Zrotation
					JOINT LeftToeBase
					{
						OFFSET 0.192200 -14.009700 16.364100
						CHANNELS 3 Xrotation Yrotation Zrotation
						JOINT LeftToe_End
						{
							OFFSET -1.784700 -0.561700 9.474800
							CHANNELS 3 Xrotation Yrotation Zrotation
							End Site
							{
								OFFSET 0 0 0
							}
						}
					}
				}
			}
		}
	}
	JOINT RightUpLeg_virtual
	{
		OFFSET 0.000000 0.000000 0.000000
		CHANNELS 3 Xrotation Yrotation Zrotation
		JOINT RightUpLeg
		{
			OFFSET -12.883000 -6.336304 -1.092800
			CHANNELS 3 Xrotation Yrotation Zrotation
			JOINT RightLeg
			{
				OFFSET -0.524587 -46.096825 9.782800
				CHANNELS 3 Xrotation Yrotation Zrotation
				JOINT RightFoot
				{
					OFFSET 0.524587 -53.427383 -12.948300
					CHANNELS 3 Xrotation Yrotation Zrotation
					JOINT RightToeBase
					{
						OFFSET -0.192200 -14.009700 16.364100
						CHANNELS 3 Xrotation Yrotation Zrotation
						JOINT RightToe_End
						{
							OFFSET 1.784700 -0.561700 9.474800
							CHANNELS 3 Xrotation Yrotation Zrotation
							End Site
							{
								OFFSET 0 0 0
							}
						}
					}
				}
			}
		}
	}
	JOINT Spine_virtual
	{
		OFFSET 0.000000 0.000000 0.000000
		CHANNELS 3 Xrotation Yrotation Zrotation
		JOINT Spine
		{
			OFFSET 0.072000 7.257294 -0.789700
			CHANNELS 3 Xrotation Yrotation Zrotation
			JOINT Spine1
			{
				OFFSET 0.000000 12.508769 -0.658067
				CHANNELS 3 Xrotation Yrotation Zrotation
				JOINT Spine1_split
				{
					OFFSET 0.000000 12.508769 -0.658067
					CHANNELS 3 Xrotation Yrotation Zrotation
					JOINT Spine2
					{
						OFFSET 0.000000 12.508769 -0.658067
						CHANNELS 3 Xrotation Yrotation Zrotation
						JOINT Neck_virtual
						{
							OFFSET 0.000000 0.000000 0.000000
							CHANNELS 3 Xrotation Yrotation Zrotation
							JOINT Neck
							{
								OFFSET 0.000000 14.033295 7.520400
								CHANNELS 3 Xrotation Yrotation Zrotation
								JOINT Head
								{
									OFFSET 0.000000 8.198502 5.703100
									CHANNELS 3 Xrotation Yrotation Zrotation
									JOINT HeadTop_End
									{
										OFFSET 0.000000 17.760803 13.332701
										CHANNELS 3 Xrotation Yrotation Zrotation
										End Site
										{
											OFFSET 0 0 0
										}
									}
								}
							}
						}
						JOINT LeftShoulder_virtual
						{
							OFFSET 0.000000 0.000000 0.000000
							CHANNELS 3 Xrotation Yrotation Zrotation
							JOINT LeftShoulder
							{
								OFFSET 6.292450 5.785301 -0.669000
								CHANNELS 3 Xrotation Yrotation Zrotation
								JOINT LeftShoulder_split
								{
									OFFSET 6.292450 5.785301 -0.669000
									CHANNELS 3 Xrotation Yrotation Zrotation
									JOINT LeftArm
									{
										OFFSET 13.907140 -6.093903 1.965100
										CHANNELS 3 Xrotation Yrotation Zrotation
										JOINT LeftForeArm
										{
											OFFSET 34.140198 0.000000 0.000000
											CHANNELS 3 Xrotation Yrotation Zrotation
											JOINT LeftHand
											{
												OFFSET 40.960209 0.000000 0.000000
												CHANNELS 3 Xrotation Yrotation Zrotation
												End Site
												{
													OFFSET 0 0 0
												}
											}
										}
									}
								}
							}
						}
						JOINT RightShoulder_virtual
						{
							OFFSET 0.000000 0.000000 0.000000
							CHANNELS 3 Xrotation Yrotation Zrotation
							JOINT RightShoulder
							{
								OFFSET -6.292450 5.785301 -0.669000
								CHANNELS 3 Xrotation Yrotation Zrotation
								JOINT RightShoulder_split
								{
									OFFSET -6.292450 5.785301 -0.669000
									CHANNELS 3 Xrotation Yrotation Zrotation
									JOINT RightArm
									{
										OFFSET -13.907140 -6.093903 1.965100
										CHANNELS 3 Xrotation Yrotation Zrotation
										JOINT RightForeArm
										{
											OFFSET -34.140198 0.000000 0.000000
											CHANNELS 3 Xrotation Yrotation Zrotation
											JOINT RightHand
											{
												OFFSET -40.960209 0.000000 0.000000
												CHANNELS 3 Xrotation Yrotation Zrotation
												End Site
												{
													OFFSET 0 0 0
												}
											}
										}
									}
								}
							}
						}
					}
				}
			}
		}
	}
}
MOTION
Frames: 8
Frame Time: 0.03333333
-0.286928 117.675529 1.102348 0.000000 0.000000 0.000000 -3.750043 -4.968601 -3.988217 -10.127828 13.538413 12.955297 11.615051 3.671865 2.807601 1.625525 0.732885 -8.509506 -0.967426 0.229885 -1.189300 0.000000 0.000000 0.000000 -3.244749 -3.029868 -4.160359 1.255905 -8.834276 2.035951 8.174459 -7.396122 -3.990890 -1.082698 -0.823331 2.298233 -7.461674 -0.075175 -0.059065 0.000000 0.000000 0.000000 -3.786145 -4.565787 -4.611446 2.926663 0.526577 3.719827 1.713011 -0.036270 1.815250 1.121001 -0.527055 0.032141 0.000000 0.000000 0.000000 1.285677 0.431322 1.672531 6.153868 1.174238 -0.107810 -5.382192 0.824073 -1.004844 0.000000 0.000000 0.000000 1.071550 0.590691 1.431092 1.722642 -15.364531 -12.608263 -2.725946 -0.335313 -1.517055 8.642190 -20.274042 -68.080710 -1.830136 -2.608077 0.032495 0.000000 0.000000 0.000000 1.462012 0.524784 1.645096 1.891419 12.116528 15.575927 0.406772 2.652865 -0.978581 12.372002 28.240377 57.258910 0.530175 11.286300 0.826719 0.000000 0.000000 0.000000 
-0.194224 117.672478 1.139954 0.000000 0.000000 0.000000 -3.743420 -5.120172 -3.972113 -10.117492 13.481853 12.952165 11.706328 3.703743 2.775083 1.534711 0.744063 -8.550589 -0.994887 0.230433 -1.195734 0.000000 0.000000 0.000000 -3.226071 -3.121127 -4.137681 1.295697 -8.917182 2.037931 8.105648 -7.275099 -4.029645 -1.012236 -0.886820 2.292116 -7.427714 -0.109703 -0.019214 0.000000 0.000000 0.000000 -3.779499 -4.724794 -4.641690 2.948001 0.509237 3.735023 1.702943 -0.051004 1.821464 1.092938 -0.495586 0.019423 0.000000 0.000000 0.000000 1.288776 0.433738 1.672057 6.172859 1.205439 -0.076717 -5.423438 0.906267 -1.021585 0.000000 0.000000 0.000000 1.098674 0.575088 1.446307 1.712829 -15.423949 -12.611873 -2.721239 -0.431051 -1.558794 8.564818 -20.281512 -68.141211 -1.837215 -2.672904 0.035957 0.000000 0.000000 0.000000 1.457254 0.516011 1.664912 1.872600 12.149685 15.634798 0.331185 2.646242 -0.964418 12.450738 28.252348 57.163284 0.549886 11.066656 0.861328 0.000000 0.000000 0.000000 
-0.110176 117.666252 1.162243 0.000000 0.000000 0.000000 -3.775955 -5.412288 -3.984089 -10.126960 13.437874 13.037067 11.927618 3.772371 2.730959 1.379635 0.756911 -8.632298 -1.022239 0.231552 -1.204443 0.000000 0.000000 0.000000 -3.264586 -3.269057 -4.142654 1.375058 -9.060653 2.083136 8.065759 -7.014866 -4.081845 -1.103993 -1.032111 2.249537 -7.347534 -0.137239 0.011538 0.000000 0.000000 0.000000 -3.802793 -4.997531 -4.684335 2.983201 0.497817 3.777684 1.695045 -0.071163 1.823116 1.056444 -0.470103 0.008383 0.000000 0.000000 0.000000 1.289447 0.428164 1.666837 6.209290 1.258558 -0.047615 -5.488336 1.066155 -1.098945 0.000000 0.000000 0.000000 1.124778 0.555986 1.457854 1.696874 -15.495426 -12.623711 -2.643771 -0.496827 -1.610884 8.511921 -20.178315 -68.215497 -1.823509 -2.731568 0.040137 0.000000 0.000000 0.000000 1.443920 0.503983 1.686219 1.856793 12.250438 15.667855 0.229458 2.650899 -0.958716 12.587400 28.227399 57.026960 0.525904 10.873662 0.927336 0.000000 0.000000 0.000000 
-0.047640 117.657104 1.163807 0.000000 0.000000 0.000000 -3.846039 -5.782718 -4.012402 -10.150516 13.408871 13.187546 12.212248 3.886589 2.676266 1.192929 0.769624 -8.740095 -1.036067 0.233275 -1.211459 0.000000 0.000000 0.000000 -3.348291 -3.476421 -4.163564 1.448732 -9.255846 2.156865 8.094238 -6.616055 -4.130409 -1.269500 -1.230006 2.226676 -7.278274 -0.156517 0.027178 0.000000 0.000000 0.000000 -3.851679 -5.354859 -4.732408 3.027601 0.493115 3.842059 1.691752 -0.090004 1.821318 1.036332 -0.465656 0.023568 0.000000 0.000000 0.000000 1.284218 0.419007 1.658080 6.251947 1.323804 -0.020319 -5.569322 1.271410 -1.213237 0.000000 0.000000 0.000000 1.149280 0.536418 1.465897 1.672960 -15.573537 -12.641891 -2.540222 -0.483995 -1.666675 8.487879 -19.949338 -68.274953 -1.800113 -2.757017 0.044809 0.000000 0.000000 0.000000 1.429461 0.489981 1.705199 1.844451 12.405699 15.660596 0.131504 2.654532 -0.955366 12.773629 28.218860 56.866379 0.478586 10.737405 1.001748 0.000000 0.000000 0.000000 
-0.001865 117.635742 1.130970 0.000000 0.000000 0.000000 -3.940882 -6.186225 -4.049556 -10.170384 13.394057 13.375296 12.501764 4.053678 2.613657 1.011082 0.780011 -8.859360 -1.035440 0.233883 -1.212333 0.000000 0.000000 0.000000 -3.456938 -3.737199 -4.188707 1.495005 -9.473825 2.247010 8.178740 -6.073414 -4.179456 -1.455004 -1.458717 2.260514 -7.321872 -0.169461 0.020529 0.000000 0.000000 0.000000 -3.923907 -5.776861 -4.780123 3.077752 0.496441 3.919136 1.695125 -0.101317 1.818390 1.036968 -0.483330 0.047493 0.000000 0.000000 0.000000 1.274420 0.412670 1.646144 6.288072 1.393247 0.007907 -5.654501 1.481821 -1.329130 0.000000 0.000000 0.000000 1.175255 0.520879 1.471055 1.644402 -15.653702 -12.651734 -2.422237 -0.389859 -1.726390 8.463503 -19.631280 -68.304228 -1.779109 -2.751166 0.046497 0.000000 0.000000 0.000000 1.421867 0.479398 1.719636 1.835742 12.598470 15.596617 0.025392 2.643191 -0.945338 13.011771 28.291342 56.681547 0.434619 10.680190 1.061011 0.000000 0.000000 0.000000 
0.034191 117.603653 1.082153 0.000000 0.000000 0.000000 -4.044353 -6.583909 -4.087000 -10.166220 13.384497 13.567922 12.758442 4.268344 2.548368 0.866842 0.783360 -8.980039 -1.037565 0.232985 -1.203564 0.000000 0.000000 0.000000 -3.565757 -4.030416 -4.209291 1.506236 -9.685366 2.345785 8.312634 -5.422268 -4.235994 -1.654589 -1.722597 2.316014 -7.461580 -0.179759 -0.002280 0.000000 0.000000 0.000000 -4.017851 -6.232948 -4.824613 3.129555 0.506844 3.999401 1.706056 -0.099143 1.818123 1.040475 -0.535441 0.080889 0.000000 0.000000 0.000000 1.263613 0.414910 1.633914 6.317694 1.458791 0.032223 -5.726550 1.644790 -1.420542 0.000000 0.000000 0.000000 1.206677 0.511978 1.474670 1.615575 -15.727165 -12.642249 -2.318768 -0.238436 -1.817174 8.426538 -19.269432 -68.300082 -1.766403 -2.715526 0.044916 0.000000 0.000000 0.000000 1.422694 0.476101 1.731041 1.828897 12.811008 15.476539 -0.068591 2.624916 -0.925236 13.277661 28.467066 56.502354 0.414394 10.709260 1.084128 0.000000 0.000000 0.000000 
0.063652 117.579826 1.036255 0.000000 0.000000 0.000000 -4.159116 -6.989539 -4.117320 -10.124576 13.372024 13.752489 12.973365 4.521360 2.493276 0.782172 0.774383 -9.100810 -1.049813 0.230956 -1.186101 0.000000 0.000000 0.000000 -3.672048 -4.380248 -4.219895 1.457848 -9.870491 2.448728 8.488398 -4.718419 -4.296701 -1.849930 -2.040846 2.326109 -7.598470 -0.189601 -0.028680 0.000000 0.000000 0.000000 -4.138420 -6.705207 -4.866915 3.180066 0.519855 4.070841 1.721741 -0.085316 1.823350 1.037325 -0.619874 0.098328 0.000000 0.000000 0.000000 1.253769 0.426701 1.623247 6.349609 1.514940 0.054032 -5.780602 1.724735 -1.479960 0.000000 0.000000 0.000000 1.245962 0.508847 1.478208 1.595131 -15.789954 -12.597778 -2.251782 -0.041226 -1.915874 8.372078 -18.894830 -68.280629 -1.758665 -2.647439 0.040258 0.000000 0.000000 0.000000 1.437226 0.482068 1.745445 1.829744 13.028710 15.319706 -0.166092 2.601437 -0.892852 13.511540 28.692392 56.346537 0.416872 10.861503 1.064925 0.000000 0.000000 0.000000 
0.093010 117.570129 1.000103 0.000000 0.000000 0.000000 -4.271810 -7.435345 -4.138885 -10.043702 13.344185 13.922676 13.152129 4.811832 2.457890 0.742494 0.762055 -9.206361 -1.060298 0.225859 -1.164076 0.000000 0.000000 0.000000 -3.782974 -4.773197 -4.222205 1.337695 -10.022629 2.546976 8.712629 -3.992348 -4.357983 -2.006384 -2.422560 2.269221 -7.656325 -0.201550 -0.042485 0.000000 0.000000 0.000000 -4.277520 -7.181355 -4.906392 3.223731 0.531875 4.124461 1.733682 -0.061994 1.836993 1.049182 -0.696217 0.089192 0.000000 0.000000 0.000000 1.244317 0.444499 1.620174 6.392156 1.556788 0.067028 -5.813733 1.704205 -1.520998 0.000000 0.000000 0.000000 1.289746 0.509985 1.483244 1.589027 -15.836617 -12.510193 -2.202799 0.143687 -1.979672 8.302664 -18.538628 -68.278546 -1.742391 -2.561821 0.031389 0.000000 0.000000 0.000000 1.468394 0.498662 1.767305 1.836533 13.241782 15.147809 -0.258542 2.561155 -0.828482 13.563848 28.863478 56.262392 0.429979 11.192878 1.008934 0.000000 0.000000 0.000000 
